<?xml version="1.0" encoding="utf-8"?>
<!-- Generator: Adobe Illustrator 18.0.0, SVG Export Plug-In . SVG Version: 6.00 Build 0)  -->
<!DOCTYPE svg PUBLIC "-//W3C//DTD SVG 1.1//EN" "http://www.w3.org/Graphics/SVG/1.1/DTD/svg11.dtd">
<svg version="1.1" id="Layer_1" xmlns="http://www.w3.org/2000/svg" xmlns:xlink="http://www.w3.org/1999/xlink" x="0px" y="0px"
	 viewBox="0 0 1280 800" enable-background="new 0 0 1280 800" xml:space="preserve">
<ellipse transform="matrix(0.1719 0.9851 -0.9851 0.1719 1089.0817 -622.9842)" fill="#ED1C24" cx="915.1" cy="336.3" rx="332.5" ry="339.4"/>
<path d="M708.2,337.8c-44.4,22.1-62.5,76.1-40.6,120.8c21.9,44.7,76.1,62.5,120.8,40.6c44.7-21.9,62.5-76.1,40.6-120.8
	C806.9,334,752.7,315.9,708.2,337.8z M766.7,215.9c17.6-15.4,18.5-43.5,1.3-63c-16.7-19.4-44.9-22.6-62.5-6.7
	c-17.6,15.4-18.5,43.5-1.3,63S749.1,231.3,766.7,215.9z M1039.1,183.3c-44.4,22.1-62.5,76.1-40.6,120.8
	c21.9,44.7,76.1,62.5,120.8,40.6c44.4-22.1,62.5-76.1,40.6-120.8C1137.8,179.3,1083.6,161.2,1039.1,183.3z M881.7,72.5
	c-17.6,15.4-18.5,43.5-1.3,63c17.2,19.4,44.9,22.6,62.5,6.7c17.6-15.4,18.5-43.5,1.3-63C927.5,59.8,899.4,56.7,881.7,72.5z
	 M1270.4,554.6c-4-5.4-18.5-21.2-48.9-6.7c-7.6,3.6-10,12.3-6.7,19.9c3.6,7.6,12.3,10,19.9,6.7c7.1-3.6,11.4-3.6,11.8-2.7
	c2.7,3.6,1.8,15.9-4,21.7c-1.3,1.8-3.6,3.6-10-0.9c-13.6-9.2-25-23.9-35.3-39.7c24.8-31.3,43.5-67,56.9-105.4
	c29-86.4,23-177.5-17.2-257.9C1153.2,21.2,943.1-46.2,768.5,40.4C682.1,83,618.2,156.3,587.9,246.3c-11.4,35.7-17.6,72.8-17.6,109.2
	c0,51.1,11.8,101.8,34.8,148.5C665.4,625.2,790.6,694.4,921,691.2c6.7,18.5,11.4,37.1,10.5,53.8c-0.4,8-3.6,8.3-5.8,8.3
	c-8.3,0.9-18.5-5.8-19.9-10c-0.4-1.3,2.2-4.5,9.2-8c7.6-3.6,10-12.3,6.7-19.9c-3.6-7.6-12.3-10-19.9-6.7
	c-29.9,14.5-26.3,36.2-24.8,42.2c5.8,19,29.5,33.5,51.1,31.3c18.5-2.2,30.4-15.9,31.7-35.7c1.3-19.4-3.1-38.9-9.2-57.8
	c41.5-4.5,82.8-16.3,122.1-35.7c39.7-19.9,74.6-45.8,104-77c10.9,15.9,23.4,30.4,38.4,41.1c16.7,11.4,34.8,10,47.6-3.1
	C1279.1,598.8,1282.3,570.9,1270.4,554.6z M846.4,652.2c2.2,4.9,5.8,8.7,9.6,12.7c-97.3-17.2-184.6-77-230.9-170.1
	c-37.5-75.2-43.1-160.8-16.3-241.4c28.1-84.2,88.6-152.9,169.2-192.9c4,28.1,58.5,152.9,131.7,299.6c22.6,45.3,44.4,88.6,64.8,126.4
	C882.2,537.2,825,608.9,846.4,652.2z M998.5,644.1c-10.9,5.4-24.3,0.9-29.5-10c-5.4-10.9-0.9-24.3,10-29.5
	c10.9-5.4,24.3-0.9,29.5,10C1013.4,625.2,1009.2,638.3,998.5,644.1z M1126.6,578.9c-10.9,5.4-24.3,0.9-29.5-10
	c-5.4-10.9-0.9-24.3,10-29.5c10.9-5.4,24.3-0.9,29.5,10C1142.3,560.4,1137.8,573.6,1126.6,578.9z M1005.2,471.3
	c-18.1-39.3-39.3-82.4-61.6-128.2c-72.8-146.2-139.3-265.3-159-285.6c162.1-77,355.2-14.1,433.2,142.2
	c37.5,75,42.6,160.3,15.9,241.1c-4.5,12.7-9.2,25-15,37.1c-0.9-3.1-1.8-6.3-3.1-9.2C1193.6,425.5,1101.6,427.8,1005.2,471.3z"/>
</svg>
